<svg width="23" height="20" viewBox="0 0 23 20" fill="none" xmlns="http://www.w3.org/2000/svg">
<path d="M0.734375 17.3809V4.12891C0.734375 3.93359 0.763672 3.76758 0.871094 3.58203C1.78906 1.99023 4.06445 0.701172 6.78906 0.701172C8.86914 0.701172 10.7148 1.50195 11.75 2.66406C12.7852 1.50195 14.6309 0.701172 16.7109 0.701172C19.4355 0.701172 21.7109 1.99023 22.6289 3.58203C22.7363 3.76758 22.7656 3.93359 22.7656 4.12891V17.3809C22.7656 18.2695 22.1797 18.6699 21.4863 18.6699C21.1152 18.6699 20.8125 18.4844 20.3828 18.2207C19.3086 17.5078 18.0488 17.0879 16.75 17.0977C15.3828 17.1074 14.0449 17.6152 12.9805 18.6113C12.5312 19.041 12.1602 19.1973 11.75 19.1973C11.3398 19.1973 10.9785 19.041 10.5195 18.6113C9.45508 17.6055 8.11719 17.1074 6.75 17.0977C5.45117 17.0879 4.19141 17.5078 3.11719 18.2207C2.6875 18.4844 2.38477 18.6699 2.01367 18.6699C1.32031 18.6699 0.734375 18.2695 0.734375 17.3809ZM2.64844 16.3066C3.67383 15.6133 5.1875 15.1836 6.78906 15.1836C8.32227 15.1836 9.80664 15.7109 10.793 16.4434V4.46094C10.1191 3.33789 8.56641 2.61523 6.78906 2.61523C5.07031 2.61523 3.41992 3.32812 2.64844 4.41211V16.3066ZM12.707 16.4434C13.6934 15.7109 15.1777 15.1836 16.7109 15.1836C18.3125 15.1836 19.8262 15.6133 20.8516 16.3066V4.41211C20.0801 3.32812 18.4297 2.61523 16.7109 2.61523C14.9434 2.61523 13.3809 3.33789 12.707 4.46094V16.4434Z" fill="#F8FF15"/>
</svg>
