<svg width="26" height="23" viewBox="0 0 26 23" fill="none" xmlns="http://www.w3.org/2000/svg">
<path d="M0.779297 20.1035V5.99219C0.779297 4.39062 1.57031 3.57031 3.18164 3.57031H4.58789C6.18945 3.57031 6.98047 4.39062 6.98047 5.99219V7.10547C7.16602 7.05664 7.38086 7.02734 7.625 7.02734H11.7363C11.9707 7.02734 12.1855 7.05664 12.3711 7.10547V3.23828C12.3711 1.63672 13.1621 0.816406 14.7734 0.816406H16.8145C18.416 0.816406 19.207 1.63672 19.207 3.23828V3.78516C19.5098 3.63867 19.8613 3.54102 20.2812 3.48242L21.4531 3.3457C23.0547 3.13086 23.9336 3.89258 24.1094 5.48438L25.6914 19.7422C25.8672 21.3438 25.1738 22.2031 23.5723 22.4082L22.4004 22.5547C20.7988 22.7598 19.9395 22.0078 19.7539 20.416L19.207 15.5234V20.1035C19.207 21.7051 18.416 22.5254 16.8145 22.5254H3.18164C1.57031 22.5254 0.779297 21.7051 0.779297 20.1035ZM14.207 20.6895H16.541C17.1074 20.6895 17.3809 20.4062 17.3809 19.8594V3.47266C17.3809 2.94531 17.1074 2.65234 16.541 2.65234H15.0469C14.4902 2.65234 14.207 2.94531 14.207 3.47266V20.6895ZM21.541 19.9766C21.6094 20.5137 21.9121 20.7773 22.4688 20.6992L23.1133 20.6211C23.6699 20.543 23.9141 20.2402 23.8457 19.7031L22.3125 5.91406C22.2539 5.39648 21.9414 5.11328 21.3848 5.19141L20.75 5.2793C20.1934 5.35742 19.9492 5.65039 20.0078 6.1875L21.541 19.9766ZM2.61523 19.8594C2.61523 20.4062 2.88867 20.6895 3.44531 20.6895H5.14453V6.22656C5.14453 5.69922 4.87109 5.40625 4.30469 5.40625H3.44531C2.88867 5.40625 2.61523 5.69922 2.61523 6.22656V19.8594ZM6.98047 20.6895H12.3711V9.68359C12.3711 9.15625 12.0977 8.86328 11.5312 8.86328H7.82031C7.26367 8.86328 6.98047 9.15625 6.98047 9.68359V20.6895ZM7.79102 10.6895C7.79102 10.3477 8.05469 10.0742 8.42578 10.0742H10.9648C11.3164 10.0742 11.5898 10.3477 11.5898 10.6895C11.5898 11.0508 11.3164 11.3242 10.9648 11.3242H8.42578C8.06445 11.3242 7.79102 11.0508 7.79102 10.6895ZM7.79102 18.8535C7.79102 18.502 8.06445 18.2285 8.42578 18.2285H10.9648C11.3164 18.2285 11.5898 18.502 11.5898 18.8535C11.5898 19.2148 11.3164 19.4883 10.9648 19.4883H8.42578C8.05469 19.4883 7.79102 19.2148 7.79102 18.8535Z" fill="#F8FF15"/>
</svg>
