<svg width="25" height="22" viewBox="0 0 25 22" fill="none" xmlns="http://www.w3.org/2000/svg">
<path d="M3.39258 21.5059C1.29297 21.5059 0.160156 20.3926 0.160156 18.3027V8.17578C0.160156 6.44727 0.921875 5.4707 2.49414 4.97266L14.7012 1.21289C17.4062 0.353516 19.1543 1.44727 19.1543 3.9082V4.97266H19.2129C21.3125 4.97266 22.4355 6.0957 22.4355 8.17578V9.82617C23.6367 9.95312 24.3301 10.8418 24.3301 12.0332V14.4258C24.3301 15.627 23.6367 16.5059 22.4355 16.6328V18.3027C22.4355 20.3828 21.3125 21.5059 19.2129 21.5059H3.39258ZM9.17383 4.97266H17.084V3.73242C17.084 2.93164 16.5762 2.60938 15.7461 2.84375L9.16406 4.69922C8.93945 4.76758 8.95898 4.97266 9.17383 4.97266ZM18.373 16.6523C16.1562 16.6523 14.6816 15.4805 14.6816 13.2344C14.6816 10.9785 16.1562 9.80664 18.373 9.80664H20.2578V8.40039C20.2578 7.56055 19.8184 7.15039 19.0273 7.15039H3.57812C2.77734 7.15039 2.34766 7.56055 2.34766 8.40039V18.0781C2.34766 18.9277 2.77734 19.3184 3.57812 19.3184H19.0273C19.8184 19.3184 20.2578 18.9277 20.2578 18.0781V16.6523H18.373ZM18.4121 14.9922H21.7031C22.3477 14.9922 22.6797 14.6602 22.6797 14.0254V12.4336C22.6797 11.7988 22.3477 11.4668 21.7031 11.4668H18.4121C17.1328 11.4668 16.4102 12.1016 16.4102 13.2344C16.4102 14.3574 17.1328 14.9922 18.4121 14.9922ZM18.4023 14.2891C17.8164 14.2891 17.3379 13.8105 17.3379 13.2246C17.3379 12.6387 17.8164 12.1602 18.4023 12.1602C18.9883 12.1602 19.4668 12.6387 19.4668 13.2246C19.4668 13.8105 18.9883 14.2891 18.4023 14.2891Z" fill="#F8FF15"/>
</svg>
